<svg xmlns="http://www.w3.org/2000/svg" xmlns:xlink="http://www.w3.org/1999/xlink" width="100" zoomAndPan="magnify" viewBox="0 0 75 74.999997" height="100" preserveAspectRatio="xMidYMid meet" version="1.0"><defs><clipPath id="690d6f97fc"><path d="M 22.5 29.511719 L 52.5 29.511719 L 52.5 45.261719 L 22.5 45.261719 Z M 22.5 29.511719 " clip-rule="nonzero"/></clipPath></defs><g clip-path="url(#690d6f97fc)"><path fill="#ffffff" d="M 47.34375 35.082031 C 47.085938 35.082031 46.835938 35.101562 46.589844 35.132812 C 46.292969 31.980469 43.601562 29.511719 40.328125 29.511719 C 38.289062 29.511719 36.480469 30.46875 35.328125 31.945312 C 34.867188 31.8125 34.378906 31.738281 33.871094 31.738281 C 31.585938 31.738281 29.644531 33.207031 28.96875 35.242188 C 28.550781 35.136719 28.113281 35.078125 27.664062 35.078125 C 24.8125 35.082031 22.5 37.359375 22.5 40.171875 C 22.5 42.984375 24.8125 45.261719 27.664062 45.261719 L 47.34375 45.261719 C 50.195312 45.261719 52.507812 42.980469 52.507812 40.171875 C 52.507812 37.359375 50.195312 35.082031 47.34375 35.082031 Z M 47.34375 35.082031 " fill-opacity="1" fill-rule="nonzero"/></g></svg>