<svg xmlns="http://www.w3.org/2000/svg" xmlns:xlink="http://www.w3.org/1999/xlink" width="500" zoomAndPan="magnify" viewBox="0 0 375 374.999991" height="500" preserveAspectRatio="xMidYMid meet" version="1.0"><defs><g/><clipPath id="cd87f628a3"><path d="M 63 106.621094 L 312 106.621094 L 312 230.371094 L 63 230.371094 Z M 63 106.621094 " clip-rule="nonzero"/></clipPath><clipPath id="0d26188481"><path d="M 57.097656 92.765625 L 318 92.765625 L 318 217.242188 L 57.097656 217.242188 Z M 57.097656 92.765625 " clip-rule="nonzero"/></clipPath></defs><g clip-path="url(#cd87f628a3)"><path fill="#a60000" d="M 267.242188 186.273438 L 267.242188 150.117188 L 243.972656 150.117188 L 243.972656 163.003906 L 187.589844 106.621094 L 63.546875 230.664062 L 187.589844 132.214844 L 311.453125 230.664062 Z M 267.242188 186.273438 " fill-opacity="1" fill-rule="nonzero"/></g><g clip-path="url(#0d26188481)"><path fill="#02c9ff" d="M 57.402344 217.167969 C 57.558594 216.4375 57.753906 215.710938 57.859375 214.972656 C 58.285156 212.078125 58.535156 209.152344 59.121094 206.296875 C 59.878906 202.589844 60.816406 198.910156 61.824219 195.261719 C 64.214844 186.632812 67.609375 178.390625 71.78125 170.476562 C 75.230469 163.921875 79.28125 157.753906 83.71875 151.824219 C 86.984375 147.457031 90.488281 143.296875 94.246094 139.363281 C 99.363281 134.007812 104.949219 129.175781 110.929688 124.800781 C 113.125 123.195312 115.277344 121.527344 117.519531 119.992188 C 119.589844 118.574219 121.71875 117.230469 123.894531 115.972656 C 131.609375 111.507812 139.761719 108.007812 148.226562 105.238281 C 157.027344 102.355469 166.042969 100.414062 175.269531 99.570312 C 180.421875 99.097656 185.59375 98.722656 190.773438 99.066406 C 196.25 99.429688 201.746094 99.699219 207.179688 100.417969 C 214.195312 101.347656 221.070312 103.007812 227.816406 105.203125 C 238.964844 108.828125 249.425781 113.871094 259.257812 120.214844 C 265.789062 124.425781 271.949219 129.128906 277.445312 134.636719 C 280.667969 137.867188 283.816406 141.179688 286.855469 144.582031 C 291.410156 149.679688 295.4375 155.1875 299.050781 160.992188 C 304.898438 170.390625 309.050781 180.519531 312.082031 191.132812 C 313.871094 197.40625 315.199219 203.773438 316.132812 210.226562 C 316.289062 211.296875 316.566406 212.292969 317.644531 213.152344 C 317.746094 212.675781 317.898438 212.363281 317.867188 212.0625 C 316.980469 202.839844 315.035156 193.84375 312.101562 185.050781 C 309.390625 176.945312 305.867188 169.195312 301.804688 161.695312 C 298.132812 154.917969 293.933594 148.476562 289.171875 142.394531 C 283.445312 135.082031 276.925781 128.589844 269.757812 122.707031 C 262.550781 116.789062 254.871094 111.589844 246.566406 107.359375 C 239.421875 103.71875 232.027344 100.648438 224.292969 98.503906 C 219.554688 97.1875 214.777344 95.988281 209.960938 95.015625 C 204.523438 93.917969 198.992188 93.371094 193.453125 93.132812 C 186.640625 92.839844 179.839844 92.996094 173.042969 93.746094 C 162.746094 94.882812 152.710938 97.085938 142.941406 100.519531 C 134.488281 103.492188 126.402344 107.253906 118.804688 112.007812 C 114.71875 114.566406 110.585938 117.074219 106.703125 119.921875 C 103.359375 122.371094 100.261719 125.179688 97.203125 127.992188 C 92.476562 132.339844 88.179688 137.101562 84.171875 142.128906 C 78.515625 149.226562 73.835938 156.921875 69.898438 165.089844 C 66.617188 171.898438 63.976562 178.949219 61.90625 186.207031 C 60.980469 189.449219 60.257812 192.761719 59.617188 196.074219 C 58.964844 199.441406 58.527344 202.851562 58 206.242188 C 57.789062 207.609375 57.511719 208.972656 57.40625 210.347656 C 57.238281 212.59375 57.191406 214.847656 57.089844 217.09375 C 57.195312 217.121094 57.296875 217.144531 57.402344 217.167969 Z M 57.402344 217.167969 " fill-opacity="1" fill-rule="nonzero"/></g><g fill="#02c9ff" fill-opacity="1"><g transform="translate(4.810551, 269.661193)"><g><path d="M 2.359375 0.25 C 1.929688 0.25 1.585938 0.207031 1.328125 0.125 C 1.066406 0.0390625 0.9375 -0.0976562 0.9375 -0.296875 C 0.9375 -0.679688 1.472656 -0.972656 2.546875 -1.171875 C 3.785156 -1.398438 4.734375 -1.773438 5.390625 -2.296875 C 6.046875 -2.828125 6.375 -3.675781 6.375 -4.84375 L 6.375 -26.90625 C 6.375 -28.082031 6.128906 -28.945312 5.640625 -29.5 C 5.148438 -30.050781 4.300781 -30.378906 3.09375 -30.484375 C 2.53125 -30.546875 2.117188 -30.664062 1.859375 -30.84375 C 1.597656 -31.019531 1.46875 -31.222656 1.46875 -31.453125 C 1.46875 -31.648438 1.597656 -31.789062 1.859375 -31.875 C 2.117188 -31.957031 2.460938 -32 2.890625 -32 C 3.773438 -32 4.460938 -32 4.953125 -32 C 5.441406 -32 5.90625 -31.988281 6.34375 -31.96875 C 6.78125 -31.957031 7.328125 -31.953125 7.984375 -31.953125 C 8.609375 -31.953125 9.148438 -31.972656 9.609375 -32.015625 C 10.066406 -32.066406 10.578125 -32.109375 11.140625 -32.140625 C 11.710938 -32.171875 12.472656 -32.1875 13.421875 -32.1875 C 17.242188 -32.1875 20.09375 -31.640625 21.96875 -30.546875 C 23.851562 -29.453125 24.796875 -27.566406 24.796875 -24.890625 C 24.796875 -23.773438 24.609375 -22.800781 24.234375 -21.96875 C 23.859375 -21.144531 23.488281 -20.550781 23.125 -20.1875 C 22.601562 -19.664062 22.128906 -19.265625 21.703125 -18.984375 C 21.273438 -18.710938 20.65625 -18.410156 19.84375 -18.078125 C 19.71875 -18.046875 19.65625 -17.972656 19.65625 -17.859375 C 19.65625 -17.742188 19.71875 -17.65625 19.84375 -17.59375 C 20.59375 -17.363281 21.367188 -17.066406 22.171875 -16.703125 C 22.972656 -16.347656 23.722656 -15.882812 24.421875 -15.3125 C 25.128906 -14.738281 25.703125 -13.984375 26.140625 -13.046875 C 26.578125 -12.117188 26.796875 -10.9375 26.796875 -9.5 C 26.796875 -7.707031 26.507812 -6.285156 25.9375 -5.234375 C 25.375 -4.191406 24.695312 -3.394531 23.90625 -2.84375 C 23.125 -2.289062 22.390625 -1.832031 21.703125 -1.46875 C 20.691406 -0.945312 19.515625 -0.535156 18.171875 -0.234375 C 16.835938 0.0546875 15.238281 0.203125 13.375 0.203125 C 12.945312 0.203125 12.304688 0.164062 11.453125 0.09375 C 10.609375 0.03125 9.695312 0 8.71875 0 C 7.875 0 7.15625 0.015625 6.5625 0.046875 C 5.976562 0.078125 5.363281 0.117188 4.71875 0.171875 C 4.082031 0.222656 3.296875 0.25 2.359375 0.25 Z M 14.0625 -1.8125 C 15.5 -1.8125 16.835938 -2.132812 18.078125 -2.78125 C 19.316406 -3.4375 20.3125 -4.328125 21.0625 -5.453125 C 21.820312 -6.585938 22.203125 -7.859375 22.203125 -9.265625 C 22.203125 -10.535156 21.988281 -11.585938 21.5625 -12.421875 C 21.132812 -13.253906 20.640625 -13.929688 20.078125 -14.453125 C 19.523438 -14.972656 19.023438 -15.347656 18.578125 -15.578125 C 18.148438 -15.835938 17.476562 -16.109375 16.5625 -16.390625 C 15.644531 -16.671875 14.453125 -16.8125 12.984375 -16.8125 C 11.941406 -16.8125 11.210938 -16.597656 10.796875 -16.171875 C 10.390625 -15.742188 10.1875 -15.367188 10.1875 -15.046875 L 10.1875 -5.296875 C 10.1875 -3.921875 10.519531 -2.992188 11.1875 -2.515625 C 11.863281 -2.046875 12.820312 -1.8125 14.0625 -1.8125 Z M 12.453125 -18.171875 C 13.328125 -18.171875 14.28125 -18.269531 15.3125 -18.46875 C 16.34375 -18.664062 17.363281 -19.039062 18.375 -19.59375 C 18.726562 -19.789062 19.179688 -20.265625 19.734375 -21.015625 C 20.296875 -21.765625 20.578125 -22.84375 20.578125 -24.25 C 20.578125 -25.195312 20.394531 -26.171875 20.03125 -27.171875 C 19.675781 -28.171875 18.992188 -29.007812 17.984375 -29.6875 C 16.972656 -30.375 15.453125 -30.71875 13.421875 -30.71875 C 12.085938 -30.71875 11.210938 -30.535156 10.796875 -30.171875 C 10.390625 -29.816406 10.1875 -29.265625 10.1875 -28.515625 L 10.1875 -19.984375 C 10.1875 -19.140625 10.460938 -18.625 11.015625 -18.4375 C 11.578125 -18.257812 12.054688 -18.171875 12.453125 -18.171875 Z M 12.453125 -18.171875 "/></g></g></g><g fill="#02c9ff" fill-opacity="1"><g transform="translate(33.571257, 269.661193)"><g><path d="M 2.6875 0.25 C 2.269531 0.25 1.9375 0.191406 1.6875 0.078125 C 1.445312 -0.0351562 1.328125 -0.175781 1.328125 -0.34375 C 1.328125 -0.632812 1.476562 -0.835938 1.78125 -0.953125 C 2.09375 -1.066406 2.300781 -1.140625 2.40625 -1.171875 C 3.675781 -1.429688 4.65625 -1.816406 5.34375 -2.328125 C 6.03125 -2.835938 6.375 -3.628906 6.375 -4.703125 L 6.375 -27.4375 C 6.375 -28.21875 6.289062 -28.796875 6.125 -29.171875 C 5.957031 -29.554688 5.660156 -29.835938 5.234375 -30.015625 C 4.816406 -30.191406 4.195312 -30.347656 3.375 -30.484375 C 2.300781 -30.671875 1.765625 -30.992188 1.765625 -31.453125 C 1.765625 -31.648438 1.894531 -31.789062 2.15625 -31.875 C 2.414062 -31.957031 2.757812 -32 3.1875 -32 C 4.070312 -32 4.78125 -31.984375 5.3125 -31.953125 C 5.851562 -31.921875 6.367188 -31.894531 6.859375 -31.875 C 7.347656 -31.851562 7.953125 -31.84375 8.671875 -31.84375 C 9.484375 -31.84375 10.179688 -31.851562 10.765625 -31.875 C 11.359375 -31.894531 11.96875 -31.921875 12.59375 -31.953125 C 13.21875 -31.984375 13.96875 -32 14.84375 -32 C 15.269531 -32 15.613281 -31.957031 15.875 -31.875 C 16.132812 -31.789062 16.265625 -31.648438 16.265625 -31.453125 C 16.265625 -31.222656 16.132812 -31.023438 15.875 -30.859375 C 15.613281 -30.703125 15.207031 -30.578125 14.65625 -30.484375 C 13.445312 -30.253906 12.414062 -29.984375 11.5625 -29.671875 C 10.71875 -29.359375 10.296875 -28.726562 10.296875 -27.78125 L 10.296875 -4.703125 C 10.296875 -3.691406 10.519531 -2.941406 10.96875 -2.453125 C 11.425781 -1.960938 12.457031 -1.71875 14.0625 -1.71875 L 20.140625 -1.71875 C 21.023438 -1.71875 21.800781 -1.851562 22.46875 -2.125 C 23.132812 -2.40625 23.632812 -2.691406 23.96875 -2.984375 C 24.613281 -3.546875 25.09375 -4.046875 25.40625 -4.484375 C 25.71875 -4.921875 26.085938 -5.582031 26.515625 -6.46875 C 26.578125 -6.664062 26.710938 -6.957031 26.921875 -7.34375 C 27.140625 -7.738281 27.363281 -7.9375 27.59375 -7.9375 C 27.78125 -7.9375 27.921875 -7.835938 28.015625 -7.640625 C 28.117188 -7.441406 28.171875 -7.25 28.171875 -7.0625 C 28.171875 -7.019531 28.160156 -6.972656 28.140625 -6.921875 C 28.128906 -6.878906 28.125 -6.84375 28.125 -6.8125 C 27.894531 -5.957031 27.691406 -5.1875 27.515625 -4.5 C 27.335938 -3.820312 27.191406 -3.171875 27.078125 -2.546875 C 26.960938 -1.921875 26.867188 -1.269531 26.796875 -0.59375 C 26.765625 -0.363281 26.707031 -0.164062 26.625 0 C 26.550781 0.164062 26.378906 0.25 26.109375 0.25 C 24.484375 0.25 22.914062 0.226562 21.40625 0.1875 C 19.90625 0.15625 18.460938 0.128906 17.078125 0.109375 C 15.691406 0.0976562 14.359375 0.078125 13.078125 0.046875 C 11.804688 0.015625 10.550781 0 9.3125 0 C 8.488281 0 7.5625 0.015625 6.53125 0.046875 C 5.507812 0.078125 4.613281 0.117188 3.84375 0.171875 C 3.070312 0.222656 2.6875 0.25 2.6875 0.25 Z M 2.6875 0.25 "/></g></g></g><g fill="#02c9ff" fill-opacity="1"><g transform="translate(62.184975, 269.661193)"><g><path d="M 18.234375 0.6875 C 15.316406 0.6875 12.878906 0.171875 10.921875 -0.859375 C 8.960938 -1.890625 7.492188 -3.34375 6.515625 -5.21875 C 5.535156 -7.09375 5.046875 -9.273438 5.046875 -11.765625 L 5.046875 -26.796875 C 5.046875 -27.972656 4.804688 -28.832031 4.328125 -29.375 C 3.859375 -29.914062 3.347656 -30.25 2.796875 -30.375 C 1.710938 -30.675781 1.171875 -31.035156 1.171875 -31.453125 C 1.171875 -31.648438 1.300781 -31.789062 1.5625 -31.875 C 1.820312 -31.957031 2.164062 -32 2.59375 -32 C 3.34375 -32 4.082031 -31.972656 4.8125 -31.921875 C 5.550781 -31.867188 6.378906 -31.84375 7.296875 -31.84375 C 8.046875 -31.84375 8.753906 -31.859375 9.421875 -31.890625 C 10.097656 -31.929688 10.695312 -31.953125 11.21875 -31.953125 C 11.644531 -31.953125 11.988281 -31.910156 12.25 -31.828125 C 12.507812 -31.742188 12.640625 -31.601562 12.640625 -31.40625 C 12.640625 -31.175781 12.507812 -30.992188 12.25 -30.859375 C 11.988281 -30.734375 11.582031 -30.585938 11.03125 -30.421875 C 10.632812 -30.296875 10.191406 -29.921875 9.703125 -29.296875 C 9.210938 -28.679688 8.96875 -27.882812 8.96875 -26.90625 L 8.96875 -13.125 C 8.96875 -10.519531 9.40625 -8.375 10.28125 -6.6875 C 11.164062 -5.007812 12.382812 -3.769531 13.9375 -2.96875 C 15.488281 -2.164062 17.257812 -1.765625 19.25 -1.765625 C 22.613281 -1.765625 25.082031 -2.929688 26.65625 -5.265625 C 28.226562 -7.597656 29.015625 -10.675781 29.015625 -14.5 C 29.015625 -15.21875 29.003906 -16.164062 28.984375 -17.34375 C 28.960938 -18.519531 28.9375 -19.785156 28.90625 -21.140625 C 28.875 -22.492188 28.84375 -23.789062 28.8125 -25.03125 C 28.8125 -25.882812 28.738281 -26.6875 28.59375 -27.4375 C 28.445312 -28.1875 28.222656 -28.832031 27.921875 -29.375 C 27.628906 -29.914062 27.253906 -30.25 26.796875 -30.375 C 26.472656 -30.476562 26.125 -30.609375 25.75 -30.765625 C 25.375 -30.929688 25.1875 -31.128906 25.1875 -31.359375 C 25.1875 -31.554688 25.316406 -31.695312 25.578125 -31.78125 C 25.835938 -31.863281 26.179688 -31.90625 26.609375 -31.90625 C 27.359375 -31.90625 27.976562 -31.894531 28.46875 -31.875 C 28.957031 -31.851562 29.5625 -31.84375 30.28125 -31.84375 C 30.800781 -31.84375 31.289062 -31.851562 31.75 -31.875 C 32.207031 -31.894531 32.648438 -31.921875 33.078125 -31.953125 C 33.503906 -31.984375 33.894531 -32 34.25 -32 C 34.675781 -32 35.019531 -31.957031 35.28125 -31.875 C 35.539062 -31.789062 35.671875 -31.648438 35.671875 -31.453125 C 35.671875 -31.035156 35.132812 -30.710938 34.0625 -30.484375 C 33.207031 -30.316406 32.597656 -29.90625 32.234375 -29.25 C 31.878906 -28.59375 31.671875 -27.773438 31.609375 -26.796875 C 31.441406 -23.992188 31.332031 -21.429688 31.28125 -19.109375 C 31.238281 -16.785156 31.179688 -14.5 31.109375 -12.25 C 31.046875 -9.738281 30.441406 -7.5 29.296875 -5.53125 C 28.160156 -3.570312 26.632812 -2.046875 24.71875 -0.953125 C 22.8125 0.140625 20.648438 0.6875 18.234375 0.6875 Z M 18.234375 0.6875 "/></g></g></g><g fill="#02c9ff" fill-opacity="1"><g transform="translate(98.344091, 269.661193)"><g><path d="M 3.234375 0.25 C 2.804688 0.25 2.460938 0.207031 2.203125 0.125 C 1.941406 0.0390625 1.8125 -0.0976562 1.8125 -0.296875 C 1.8125 -0.679688 2.351562 -0.972656 3.4375 -1.171875 C 4.675781 -1.398438 5.585938 -1.773438 6.171875 -2.296875 C 6.765625 -2.828125 7.0625 -3.675781 7.0625 -4.84375 L 7.0625 -26.90625 C 7.0625 -28.082031 6.820312 -28.914062 6.34375 -29.40625 C 5.875 -29.894531 5.015625 -30.253906 3.765625 -30.484375 C 3.210938 -30.578125 2.804688 -30.703125 2.546875 -30.859375 C 2.285156 -31.023438 2.15625 -31.222656 2.15625 -31.453125 C 2.15625 -31.648438 2.285156 -31.789062 2.546875 -31.875 C 2.804688 -31.957031 3.148438 -32 3.578125 -32 C 4.816406 -32 5.867188 -31.984375 6.734375 -31.953125 C 7.597656 -31.921875 8.445312 -31.894531 9.28125 -31.875 C 10.113281 -31.851562 11.101562 -31.84375 12.25 -31.84375 C 13.320312 -31.84375 14.453125 -31.851562 15.640625 -31.875 C 16.835938 -31.894531 17.945312 -31.90625 18.96875 -31.90625 C 20.070312 -31.9375 21.007812 -31.957031 21.78125 -31.96875 C 22.550781 -31.988281 23 -32 23.125 -32 C 23.289062 -32 23.472656 -31.960938 23.671875 -31.890625 C 23.867188 -31.828125 23.984375 -31.71875 24.015625 -31.5625 C 24.171875 -30.644531 24.332031 -29.734375 24.5 -28.828125 C 24.664062 -27.929688 24.75 -27.160156 24.75 -26.515625 C 24.75 -26.210938 24.671875 -26.015625 24.515625 -25.921875 C 24.367188 -25.828125 24.21875 -25.78125 24.0625 -25.78125 C 23.894531 -25.78125 23.78125 -25.816406 23.71875 -25.890625 C 23.65625 -25.972656 23.585938 -26.097656 23.515625 -26.265625 C 23.359375 -26.816406 23.195312 -27.34375 23.03125 -27.84375 C 22.863281 -28.351562 22.664062 -28.722656 22.4375 -28.953125 C 21.976562 -29.484375 21.472656 -29.835938 20.921875 -30.015625 C 20.367188 -30.191406 19.78125 -30.28125 19.15625 -30.28125 L 12.734375 -30.28125 C 12.472656 -30.28125 12.113281 -30.132812 11.65625 -29.84375 C 11.195312 -29.550781 10.96875 -29.175781 10.96875 -28.71875 L 10.96875 -18.328125 C 10.96875 -18.035156 11.054688 -17.78125 11.234375 -17.5625 C 11.421875 -17.351562 11.628906 -17.25 11.859375 -17.25 L 16.703125 -17.25 C 17.648438 -17.25 18.300781 -17.421875 18.65625 -17.765625 C 19.019531 -18.109375 19.316406 -18.738281 19.546875 -19.65625 C 19.742188 -20.375 20.039062 -20.734375 20.4375 -20.734375 C 20.5625 -20.734375 20.695312 -20.664062 20.84375 -20.53125 C 20.988281 -20.394531 21.0625 -20.195312 21.0625 -19.9375 C 21.0625 -19.8125 21.050781 -19.519531 21.03125 -19.0625 C 21.019531 -18.601562 21 -18.128906 20.96875 -17.640625 C 20.9375 -17.148438 20.921875 -16.773438 20.921875 -16.515625 C 20.921875 -16.179688 20.925781 -15.742188 20.9375 -15.203125 C 20.957031 -14.671875 20.972656 -14.160156 20.984375 -13.671875 C 21.003906 -13.179688 21.015625 -12.867188 21.015625 -12.734375 C 21.015625 -12.503906 20.988281 -12.304688 20.9375 -12.140625 C 20.894531 -11.984375 20.773438 -11.90625 20.578125 -11.90625 C 20.085938 -11.90625 19.710938 -12.425781 19.453125 -13.46875 C 19.253906 -14.226562 18.988281 -14.785156 18.65625 -15.140625 C 18.332031 -15.503906 17.847656 -15.6875 17.203125 -15.6875 L 12.640625 -15.6875 C 12.085938 -15.6875 11.671875 -15.609375 11.390625 -15.453125 C 11.109375 -15.304688 10.96875 -14.957031 10.96875 -14.40625 L 10.96875 -5 C 10.96875 -3.757812 11.226562 -2.898438 11.75 -2.421875 C 12.28125 -1.953125 13.097656 -1.71875 14.203125 -1.71875 L 17.84375 -1.71875 C 18.882812 -1.71875 19.753906 -1.773438 20.453125 -1.890625 C 21.160156 -2.003906 21.773438 -2.222656 22.296875 -2.546875 C 22.816406 -2.910156 23.28125 -3.382812 23.6875 -3.96875 C 24.09375 -4.550781 24.5625 -5.335938 25.09375 -6.328125 C 25.1875 -6.515625 25.296875 -6.671875 25.421875 -6.796875 C 25.554688 -6.929688 25.707031 -6.984375 25.875 -6.953125 C 26.03125 -6.921875 26.15625 -6.847656 26.25 -6.734375 C 26.351562 -6.617188 26.40625 -6.460938 26.40625 -6.265625 C 26.40625 -5.972656 26.320312 -5.457031 26.15625 -4.71875 C 26 -3.988281 25.796875 -3.234375 25.546875 -2.453125 C 25.304688 -1.671875 25.085938 -1.050781 24.890625 -0.59375 C 24.796875 -0.363281 24.707031 -0.164062 24.625 0 C 24.539062 0.164062 24.398438 0.25 24.203125 0.25 C 22.640625 0.25 21.1875 0.226562 19.84375 0.1875 C 18.507812 0.15625 17.234375 0.125 16.015625 0.09375 C 14.804688 0.0625 13.625 0.03125 12.46875 0 C 11.3125 -0.03125 10.113281 -0.046875 8.875 -0.046875 C 8.15625 -0.046875 7.53125 -0.0234375 7 0.015625 C 6.476562 0.0664062 5.941406 0.117188 5.390625 0.171875 C 4.835938 0.222656 4.117188 0.25 3.234375 0.25 Z M 3.234375 0.25 "/></g></g></g><g fill="#02c9ff" fill-opacity="1"><g transform="translate(125.977886, 269.661193)"><g/></g></g><g fill="#02c9ff" fill-opacity="1"><g transform="translate(135.777106, 269.661193)"><g><path d="M 3.234375 0.25 C 2.804688 0.25 2.460938 0.191406 2.203125 0.078125 C 1.941406 -0.0351562 1.8125 -0.191406 1.8125 -0.390625 C 1.8125 -0.710938 2.332031 -0.972656 3.375 -1.171875 C 4.625 -1.398438 5.4375 -1.773438 5.8125 -2.296875 C 6.1875 -2.828125 6.375 -3.675781 6.375 -4.84375 L 6.375 -27 C 6.375 -28.144531 6.25 -28.953125 6 -29.421875 C 5.757812 -29.898438 5.015625 -30.253906 3.765625 -30.484375 C 2.691406 -30.671875 2.15625 -30.960938 2.15625 -31.359375 C 2.15625 -31.554688 2.269531 -31.710938 2.5 -31.828125 C 2.726562 -31.941406 3.085938 -32 3.578125 -32 C 4.460938 -32 5.148438 -31.984375 5.640625 -31.953125 C 6.128906 -31.921875 6.582031 -31.894531 7 -31.875 C 7.425781 -31.851562 7.96875 -31.84375 8.625 -31.84375 C 9.3125 -31.84375 9.875 -31.851562 10.3125 -31.875 C 10.75 -31.894531 11.222656 -31.921875 11.734375 -31.953125 C 12.242188 -31.984375 12.9375 -32 13.8125 -32 C 14.757812 -32 15.234375 -31.785156 15.234375 -31.359375 C 15.234375 -31.128906 15.101562 -30.945312 14.84375 -30.8125 C 14.582031 -30.6875 14.175781 -30.578125 13.625 -30.484375 C 12.414062 -30.253906 11.554688 -29.851562 11.046875 -29.28125 C 10.546875 -28.707031 10.296875 -27.945312 10.296875 -27 L 10.296875 -17.34375 C 10.296875 -17.144531 10.375 -17.019531 10.53125 -16.96875 C 10.695312 -16.925781 10.84375 -16.90625 10.96875 -16.90625 L 29.15625 -16.90625 C 29.382812 -16.90625 29.5 -17.101562 29.5 -17.5 L 29.5 -27.046875 C 29.5 -27.929688 29.269531 -28.664062 28.8125 -29.25 C 28.351562 -29.84375 27.503906 -30.253906 26.265625 -30.484375 C 25.710938 -30.578125 25.300781 -30.6875 25.03125 -30.8125 C 24.769531 -30.945312 24.640625 -31.128906 24.640625 -31.359375 C 24.640625 -31.785156 25.113281 -32 26.0625 -32 C 26.945312 -32 27.675781 -31.984375 28.25 -31.953125 C 28.820312 -31.921875 29.367188 -31.894531 29.890625 -31.875 C 30.410156 -31.851562 31.03125 -31.84375 31.75 -31.84375 C 32.34375 -31.84375 32.800781 -31.851562 33.125 -31.875 C 33.445312 -31.894531 33.820312 -31.921875 34.25 -31.953125 C 34.675781 -31.984375 35.332031 -32 36.21875 -32 C 36.664062 -32 37.007812 -31.941406 37.25 -31.828125 C 37.5 -31.710938 37.625 -31.554688 37.625 -31.359375 C 37.625 -30.960938 37.085938 -30.671875 36.015625 -30.484375 C 34.804688 -30.253906 34.070312 -29.859375 33.8125 -29.296875 C 33.550781 -28.742188 33.421875 -27.992188 33.421875 -27.046875 L 33.421875 -4.90625 C 33.421875 -3.695312 33.570312 -2.828125 33.875 -2.296875 C 34.1875 -1.773438 34.945312 -1.398438 36.15625 -1.171875 C 37.207031 -0.972656 37.734375 -0.710938 37.734375 -0.390625 C 37.734375 -0.191406 37.601562 -0.0351562 37.34375 0.078125 C 37.082031 0.191406 36.738281 0.25 36.3125 0.25 C 35.425781 0.25 34.738281 0.222656 34.25 0.171875 C 33.757812 0.117188 33.300781 0.078125 32.875 0.046875 C 32.445312 0.015625 31.894531 0 31.21875 0 C 30.53125 0 29.960938 0.015625 29.515625 0.046875 C 29.078125 0.078125 28.597656 0.117188 28.078125 0.171875 C 27.554688 0.222656 26.851562 0.25 25.96875 0.25 C 25.539062 0.25 25.195312 0.191406 24.9375 0.078125 C 24.675781 -0.0351562 24.546875 -0.191406 24.546875 -0.390625 C 24.546875 -0.617188 24.664062 -0.78125 24.90625 -0.875 C 25.15625 -0.976562 25.554688 -1.078125 26.109375 -1.171875 C 27.160156 -1.367188 27.988281 -1.753906 28.59375 -2.328125 C 29.195312 -2.898438 29.5 -3.707031 29.5 -4.75 L 29.5 -14.3125 C 29.5 -14.46875 29.5 -14.628906 29.5 -14.796875 C 29.5 -14.960938 29.414062 -15.046875 29.25 -15.046875 L 10.53125 -15.046875 C 10.375 -15.046875 10.296875 -14.863281 10.296875 -14.5 L 10.296875 -5.1875 C 10.296875 -4.175781 10.671875 -3.300781 11.421875 -2.5625 C 12.171875 -1.832031 13.097656 -1.367188 14.203125 -1.171875 C 14.765625 -1.078125 15.164062 -0.976562 15.40625 -0.875 C 15.65625 -0.78125 15.78125 -0.617188 15.78125 -0.390625 C 15.78125 -0.191406 15.648438 -0.0351562 15.390625 0.078125 C 15.128906 0.191406 14.785156 0.25 14.359375 0.25 C 13.472656 0.25 12.742188 0.222656 12.171875 0.171875 C 11.597656 0.117188 11.050781 0.078125 10.53125 0.046875 C 10.007812 0.015625 9.375 0 8.625 0 C 7.9375 0 7.351562 0.015625 6.875 0.046875 C 6.40625 0.078125 5.898438 0.117188 5.359375 0.171875 C 4.828125 0.222656 4.117188 0.25 3.234375 0.25 Z M 3.234375 0.25 "/></g></g></g><g fill="#02c9ff" fill-opacity="1"><g transform="translate(175.463932, 269.661193)"><g><path d="M 18.46875 0.6875 C 16.3125 0.6875 14.253906 0.304688 12.296875 -0.453125 C 10.335938 -1.222656 8.601562 -2.316406 7.09375 -3.734375 C 5.59375 -5.160156 4.398438 -6.863281 3.515625 -8.84375 C 2.640625 -10.820312 2.203125 -13.019531 2.203125 -15.4375 C 2.203125 -17.65625 2.5625 -19.785156 3.28125 -21.828125 C 4 -23.867188 5.0625 -25.6875 6.46875 -27.28125 C 7.875 -28.882812 9.617188 -30.160156 11.703125 -31.109375 C 13.796875 -32.054688 16.195312 -32.53125 18.90625 -32.53125 C 21.0625 -32.53125 23.117188 -32.144531 25.078125 -31.375 C 27.046875 -30.613281 28.78125 -29.519531 30.28125 -28.09375 C 31.78125 -26.675781 32.972656 -24.976562 33.859375 -23 C 34.742188 -21.03125 35.1875 -18.835938 35.1875 -16.421875 C 35.1875 -14.222656 34.828125 -12.09375 34.109375 -10.03125 C 33.390625 -7.976562 32.328125 -6.148438 30.921875 -4.546875 C 29.515625 -2.953125 27.765625 -1.679688 25.671875 -0.734375 C 23.585938 0.210938 21.1875 0.6875 18.46875 0.6875 Z M 19.203125 -1.28125 C 21.722656 -1.28125 23.816406 -1.804688 25.484375 -2.859375 C 27.148438 -3.921875 28.398438 -5.40625 29.234375 -7.3125 C 30.066406 -9.226562 30.484375 -11.460938 30.484375 -14.015625 C 30.484375 -16.265625 30.21875 -18.382812 29.6875 -20.375 C 29.164062 -22.375 28.390625 -24.132812 27.359375 -25.65625 C 26.335938 -27.175781 25.054688 -28.359375 23.515625 -29.203125 C 21.984375 -30.054688 20.1875 -30.484375 18.125 -30.484375 C 15.675781 -30.484375 13.617188 -29.957031 11.953125 -28.90625 C 10.285156 -27.863281 9.023438 -26.398438 8.171875 -24.515625 C 7.328125 -22.640625 6.90625 -20.429688 6.90625 -17.890625 C 6.90625 -15.597656 7.15625 -13.457031 7.65625 -11.46875 C 8.164062 -9.476562 8.9375 -7.710938 9.96875 -6.171875 C 11 -4.640625 12.28125 -3.441406 13.8125 -2.578125 C 15.351562 -1.710938 17.148438 -1.28125 19.203125 -1.28125 Z M 19.203125 -1.28125 "/></g></g></g><g fill="#02c9ff" fill-opacity="1"><g transform="translate(212.847943, 269.661193)"><g><path d="M 31.21875 1.03125 C 30.300781 1.03125 29.429688 0.957031 28.609375 0.8125 C 27.796875 0.664062 27.046875 0.394531 26.359375 0 C 25.671875 -0.394531 25.035156 -0.929688 24.453125 -1.609375 C 23.671875 -2.597656 22.921875 -3.539062 22.203125 -4.4375 C 21.484375 -5.332031 20.722656 -6.367188 19.921875 -7.546875 C 19.117188 -8.722656 18.144531 -10.222656 17 -12.046875 C 16.507812 -12.867188 15.804688 -13.507812 14.890625 -13.96875 C 14.171875 -14.320312 13.460938 -14.570312 12.765625 -14.71875 C 12.066406 -14.863281 11.488281 -14.957031 11.03125 -15 C 10.769531 -15.03125 10.582031 -14.945312 10.46875 -14.75 C 10.351562 -14.550781 10.296875 -14.304688 10.296875 -14.015625 L 10.296875 -5.390625 C 10.296875 -4.347656 10.539062 -3.441406 11.03125 -2.671875 C 11.519531 -1.898438 12.367188 -1.398438 13.578125 -1.171875 C 14.128906 -1.078125 14.535156 -0.960938 14.796875 -0.828125 C 15.054688 -0.703125 15.1875 -0.523438 15.1875 -0.296875 C 15.1875 -0.0976562 15.054688 0.0390625 14.796875 0.125 C 14.535156 0.207031 14.191406 0.25 13.765625 0.25 C 12.890625 0.25 12.210938 0.210938 11.734375 0.140625 C 11.265625 0.078125 10.835938 0.0234375 10.453125 -0.015625 C 10.078125 -0.0664062 9.582031 -0.09375 8.96875 -0.09375 C 8.144531 -0.09375 7.414062 -0.0664062 6.78125 -0.015625 C 6.144531 0.0234375 5.507812 0.078125 4.875 0.140625 C 4.238281 0.210938 3.476562 0.25 2.59375 0.25 C 2.164062 0.25 1.820312 0.207031 1.5625 0.125 C 1.300781 0.0390625 1.171875 -0.0976562 1.171875 -0.296875 C 1.171875 -0.679688 1.710938 -0.972656 2.796875 -1.171875 C 4.035156 -1.398438 4.941406 -1.773438 5.515625 -2.296875 C 6.085938 -2.828125 6.375 -3.695312 6.375 -4.90625 L 6.375 -25.78125 C 6.375 -27.019531 6.316406 -27.957031 6.203125 -28.59375 C 6.085938 -29.226562 5.820312 -29.675781 5.40625 -29.9375 C 5 -30.195312 4.320312 -30.378906 3.375 -30.484375 C 2.820312 -30.546875 2.414062 -30.664062 2.15625 -30.84375 C 1.894531 -31.019531 1.765625 -31.222656 1.765625 -31.453125 C 1.765625 -31.648438 1.894531 -31.789062 2.15625 -31.875 C 2.414062 -31.957031 2.757812 -32 3.1875 -32 C 4.070312 -32 4.734375 -32 5.171875 -32 C 5.609375 -32 6.019531 -31.988281 6.40625 -31.96875 C 6.800781 -31.957031 7.328125 -31.953125 7.984375 -31.953125 C 8.609375 -31.953125 9.164062 -31.972656 9.65625 -32.015625 C 10.144531 -32.066406 10.691406 -32.109375 11.296875 -32.140625 C 11.898438 -32.171875 12.675781 -32.1875 13.625 -32.1875 C 17.21875 -32.1875 19.953125 -31.515625 21.828125 -30.171875 C 23.703125 -28.835938 24.640625 -26.832031 24.640625 -24.15625 C 24.640625 -22.6875 24.347656 -21.421875 23.765625 -20.359375 C 23.179688 -19.296875 22.445312 -18.40625 21.5625 -17.6875 C 20.675781 -16.96875 19.773438 -16.378906 18.859375 -15.921875 C 18.734375 -15.890625 18.675781 -15.816406 18.6875 -15.703125 C 18.707031 -15.585938 18.765625 -15.445312 18.859375 -15.28125 C 19.878906 -13.75 20.851562 -12.296875 21.78125 -10.921875 C 22.707031 -9.554688 23.726562 -8.21875 24.84375 -6.90625 C 25.957031 -5.601562 27.28125 -4.25 28.8125 -2.84375 C 29.664062 -2.09375 30.53125 -1.632812 31.40625 -1.46875 C 32.289062 -1.300781 33.304688 -1.21875 34.453125 -1.21875 C 34.941406 -1.21875 35.1875 -1.039062 35.1875 -0.6875 C 35.1875 -0.195312 34.941406 0.164062 34.453125 0.40625 C 33.960938 0.65625 33.40625 0.820312 32.78125 0.90625 C 32.15625 0.988281 31.632812 1.03125 31.21875 1.03125 Z M 12.890625 -16.125 C 14.390625 -16.125 15.6875 -16.460938 16.78125 -17.140625 C 17.875 -17.828125 18.722656 -18.726562 19.328125 -19.84375 C 19.929688 -20.957031 20.234375 -22.132812 20.234375 -23.375 C 20.234375 -24.707031 20.0625 -25.929688 19.71875 -27.046875 C 19.375 -28.160156 18.6875 -29.050781 17.65625 -29.71875 C 16.632812 -30.382812 15.09375 -30.71875 13.03125 -30.71875 C 11.988281 -30.71875 11.300781 -30.382812 10.96875 -29.71875 C 10.644531 -29.050781 10.453125 -27.867188 10.390625 -26.171875 C 10.359375 -25.347656 10.332031 -24.242188 10.3125 -22.859375 C 10.300781 -21.472656 10.296875 -19.800781 10.296875 -17.84375 C 10.296875 -17.019531 10.519531 -16.523438 10.96875 -16.359375 C 11.425781 -16.203125 12.066406 -16.125 12.890625 -16.125 Z M 12.890625 -16.125 "/></g></g></g><g fill="#02c9ff" fill-opacity="1"><g transform="translate(247.782153, 269.661193)"><g><path d="M 2.359375 0.25 C 1.929688 0.25 1.585938 0.207031 1.328125 0.125 C 1.066406 0.0390625 0.9375 -0.0976562 0.9375 -0.296875 C 0.9375 -0.679688 1.472656 -0.972656 2.546875 -1.171875 C 3.785156 -1.398438 4.734375 -1.773438 5.390625 -2.296875 C 6.046875 -2.828125 6.375 -3.660156 6.375 -4.796875 L 6.375 -26.953125 C 6.375 -28.097656 6.132812 -28.914062 5.65625 -29.40625 C 5.1875 -29.894531 4.332031 -30.253906 3.09375 -30.484375 C 2.007812 -30.671875 1.46875 -30.992188 1.46875 -31.453125 C 1.46875 -31.648438 1.597656 -31.789062 1.859375 -31.875 C 2.117188 -31.957031 2.460938 -32 2.890625 -32 C 3.773438 -32 4.5 -31.984375 5.0625 -31.953125 C 5.632812 -31.921875 6.179688 -31.894531 6.703125 -31.875 C 7.234375 -31.851562 7.875 -31.84375 8.625 -31.84375 C 9.34375 -31.84375 9.929688 -31.851562 10.390625 -31.875 C 10.847656 -31.894531 11.335938 -31.921875 11.859375 -31.953125 C 12.378906 -31.984375 13.082031 -32 13.96875 -32 C 14.394531 -32 14.738281 -31.957031 15 -31.875 C 15.257812 -31.789062 15.390625 -31.648438 15.390625 -31.453125 C 15.390625 -31.222656 15.257812 -31.023438 15 -30.859375 C 14.738281 -30.703125 14.328125 -30.578125 13.765625 -30.484375 C 12.554688 -30.253906 11.675781 -29.894531 11.125 -29.40625 C 10.570312 -28.914062 10.296875 -28.097656 10.296875 -26.953125 L 10.296875 -4.796875 C 10.296875 -3.660156 10.632812 -2.828125 11.3125 -2.296875 C 12 -1.773438 12.945312 -1.398438 14.15625 -1.171875 C 14.71875 -1.078125 15.128906 -0.960938 15.390625 -0.828125 C 15.648438 -0.703125 15.78125 -0.523438 15.78125 -0.296875 C 15.78125 -0.0976562 15.648438 0.0390625 15.390625 0.125 C 15.128906 0.207031 14.785156 0.25 14.359375 0.25 C 13.472656 0.25 12.742188 0.222656 12.171875 0.171875 C 11.597656 0.117188 11.050781 0.078125 10.53125 0.046875 C 10.007812 0.015625 9.375 0 8.625 0 C 7.8125 0 7.101562 0.015625 6.5 0.046875 C 5.894531 0.078125 5.269531 0.117188 4.625 0.171875 C 3.988281 0.222656 3.234375 0.25 2.359375 0.25 Z M 2.359375 0.25 "/></g></g></g><g fill="#02c9ff" fill-opacity="1"><g transform="translate(264.440813, 269.661193)"><g><path d="M 26.109375 0.25 C 24.710938 0.25 23.359375 0.238281 22.046875 0.21875 C 20.742188 0.207031 19.476562 0.191406 18.25 0.171875 C 17.03125 0.148438 15.835938 0.128906 14.671875 0.109375 C 13.515625 0.0976562 12.394531 0.09375 11.3125 0.09375 C 10.332031 0.09375 9.351562 0.0976562 8.375 0.109375 C 7.394531 0.128906 6.429688 0.140625 5.484375 0.140625 L 1.71875 0.140625 C 1.582031 0.140625 1.488281 0.03125 1.4375 -0.1875 C 1.394531 -0.414062 1.375 -0.53125 1.375 -0.53125 C 1.375 -0.695312 1.523438 -1.050781 1.828125 -1.59375 C 2.140625 -2.132812 2.523438 -2.726562 2.984375 -3.375 C 3.441406 -4.03125 3.851562 -4.601562 4.21875 -5.09375 C 5.882812 -7.382812 7.414062 -9.484375 8.8125 -11.390625 C 10.21875 -13.304688 11.570312 -15.171875 12.875 -16.984375 C 14.1875 -18.796875 15.519531 -20.671875 16.875 -22.609375 C 18.226562 -24.554688 19.691406 -26.707031 21.265625 -29.0625 C 21.328125 -29.125 21.375 -29.1875 21.40625 -29.25 C 21.445312 -29.3125 21.46875 -29.378906 21.46875 -29.453125 C 21.46875 -29.546875 21.398438 -29.625 21.265625 -29.6875 C 21.128906 -29.757812 20.882812 -29.8125 20.53125 -29.84375 C 19.644531 -29.875 18.554688 -29.894531 17.265625 -29.90625 C 15.984375 -29.925781 14.6875 -29.9375 13.375 -29.9375 C 12.425781 -29.9375 11.507812 -29.9375 10.625 -29.9375 C 9.75 -29.9375 9 -29.90625 8.375 -29.84375 C 7.59375 -29.78125 6.710938 -29.460938 5.734375 -28.890625 C 4.753906 -28.316406 4.035156 -27.425781 3.578125 -26.21875 C 3.441406 -25.925781 3.269531 -25.585938 3.0625 -25.203125 C 2.851562 -24.828125 2.566406 -24.640625 2.203125 -24.640625 C 2.078125 -24.640625 1.972656 -24.695312 1.890625 -24.8125 C 1.804688 -24.925781 1.765625 -25.050781 1.765625 -25.1875 C 1.765625 -25.382812 1.804688 -25.601562 1.890625 -25.84375 C 1.972656 -26.09375 2.046875 -26.316406 2.109375 -26.515625 C 2.234375 -26.867188 2.382812 -27.363281 2.5625 -28 C 2.75 -28.632812 2.929688 -29.335938 3.109375 -30.109375 C 3.285156 -30.878906 3.394531 -31.609375 3.4375 -32.296875 C 3.46875 -32.648438 3.5625 -32.875 3.71875 -32.96875 C 3.882812 -33.070312 4.035156 -33.125 4.171875 -33.125 C 4.296875 -33.125 4.515625 -33.039062 4.828125 -32.875 C 5.140625 -32.71875 5.425781 -32.570312 5.6875 -32.4375 C 6.007812 -32.300781 6.585938 -32.132812 7.421875 -31.9375 C 8.253906 -31.75 9.078125 -31.65625 9.890625 -31.65625 C 10.710938 -31.65625 11.671875 -31.65625 12.765625 -31.65625 C 13.859375 -31.65625 14.960938 -31.65625 16.078125 -31.65625 C 17.085938 -31.65625 18.070312 -31.65625 19.03125 -31.65625 C 20 -31.65625 20.945312 -31.660156 21.875 -31.671875 C 22.8125 -31.691406 23.734375 -31.707031 24.640625 -31.71875 C 25.554688 -31.738281 26.472656 -31.765625 27.390625 -31.796875 C 27.554688 -31.796875 27.710938 -31.679688 27.859375 -31.453125 C 28.003906 -31.222656 28.03125 -31.046875 27.9375 -30.921875 L 24.9375 -26.953125 C 23.238281 -24.660156 21.703125 -22.582031 20.328125 -20.71875 C 18.960938 -18.863281 17.65625 -17.0625 16.40625 -15.3125 C 15.164062 -13.5625 13.898438 -11.726562 12.609375 -9.8125 C 11.328125 -7.90625 9.914062 -5.78125 8.375 -3.4375 C 8.28125 -3.300781 8.234375 -3.101562 8.234375 -2.84375 C 8.234375 -2.644531 8.28125 -2.460938 8.375 -2.296875 C 8.476562 -2.140625 8.609375 -2.046875 8.765625 -2.015625 C 9.484375 -1.941406 10.316406 -1.878906 11.265625 -1.828125 C 12.210938 -1.785156 13.226562 -1.765625 14.3125 -1.765625 C 15.414062 -1.765625 16.554688 -1.785156 17.734375 -1.828125 C 18.910156 -1.878906 20.070312 -1.941406 21.21875 -2.015625 C 24.03125 -2.242188 26.054688 -4.019531 27.296875 -7.34375 C 27.359375 -7.539062 27.492188 -7.757812 27.703125 -8 C 27.921875 -8.25 28.144531 -8.375 28.375 -8.375 C 28.664062 -8.375 28.8125 -8.160156 28.8125 -7.734375 C 28.8125 -7.609375 28.742188 -7.226562 28.609375 -6.59375 C 28.484375 -5.957031 28.320312 -5.226562 28.125 -4.40625 C 27.925781 -3.59375 27.71875 -2.828125 27.5 -2.109375 C 27.289062 -1.390625 27.125 -0.882812 27 -0.59375 C 26.90625 -0.394531 26.800781 -0.203125 26.6875 -0.015625 C 26.570312 0.160156 26.378906 0.25 26.109375 0.25 Z M 26.109375 0.25 "/></g></g></g><g fill="#02c9ff" fill-opacity="1"><g transform="translate(293.985451, 269.661193)"><g><path d="M 18.46875 0.6875 C 16.3125 0.6875 14.253906 0.304688 12.296875 -0.453125 C 10.335938 -1.222656 8.601562 -2.316406 7.09375 -3.734375 C 5.59375 -5.160156 4.398438 -6.863281 3.515625 -8.84375 C 2.640625 -10.820312 2.203125 -13.019531 2.203125 -15.4375 C 2.203125 -17.65625 2.5625 -19.785156 3.28125 -21.828125 C 4 -23.867188 5.0625 -25.6875 6.46875 -27.28125 C 7.875 -28.882812 9.617188 -30.160156 11.703125 -31.109375 C 13.796875 -32.054688 16.195312 -32.53125 18.90625 -32.53125 C 21.0625 -32.53125 23.117188 -32.144531 25.078125 -31.375 C 27.046875 -30.613281 28.78125 -29.519531 30.28125 -28.09375 C 31.78125 -26.675781 32.972656 -24.976562 33.859375 -23 C 34.742188 -21.03125 35.1875 -18.835938 35.1875 -16.421875 C 35.1875 -14.222656 34.828125 -12.09375 34.109375 -10.03125 C 33.390625 -7.976562 32.328125 -6.148438 30.921875 -4.546875 C 29.515625 -2.953125 27.765625 -1.679688 25.671875 -0.734375 C 23.585938 0.210938 21.1875 0.6875 18.46875 0.6875 Z M 19.203125 -1.28125 C 21.722656 -1.28125 23.816406 -1.804688 25.484375 -2.859375 C 27.148438 -3.921875 28.398438 -5.40625 29.234375 -7.3125 C 30.066406 -9.226562 30.484375 -11.460938 30.484375 -14.015625 C 30.484375 -16.265625 30.21875 -18.382812 29.6875 -20.375 C 29.164062 -22.375 28.390625 -24.132812 27.359375 -25.65625 C 26.335938 -27.175781 25.054688 -28.359375 23.515625 -29.203125 C 21.984375 -30.054688 20.1875 -30.484375 18.125 -30.484375 C 15.675781 -30.484375 13.617188 -29.957031 11.953125 -28.90625 C 10.285156 -27.863281 9.023438 -26.398438 8.171875 -24.515625 C 7.328125 -22.640625 6.90625 -20.429688 6.90625 -17.890625 C 6.90625 -15.597656 7.15625 -13.457031 7.65625 -11.46875 C 8.164062 -9.476562 8.9375 -7.710938 9.96875 -6.171875 C 11 -4.640625 12.28125 -3.441406 13.8125 -2.578125 C 15.351562 -1.710938 17.148438 -1.28125 19.203125 -1.28125 Z M 19.203125 -1.28125 "/></g></g></g><g fill="#02c9ff" fill-opacity="1"><g transform="translate(331.369473, 269.661193)"><g><path d="M 32.734375 0.828125 C 32.441406 0.828125 31.859375 0.582031 30.984375 0.09375 C 30.117188 -0.394531 29.296875 -1.175781 28.515625 -2.25 C 28.390625 -2.414062 27.988281 -2.90625 27.3125 -3.71875 C 26.644531 -4.539062 25.796875 -5.5625 24.765625 -6.78125 C 23.734375 -8.007812 22.613281 -9.34375 21.40625 -10.78125 C 20.195312 -12.21875 18.988281 -13.65625 17.78125 -15.09375 C 16.570312 -16.53125 15.445312 -17.859375 14.40625 -19.078125 C 13.363281 -20.304688 12.488281 -21.335938 11.78125 -22.171875 C 11.082031 -23.003906 10.648438 -23.519531 10.484375 -23.71875 C 10.253906 -24.007812 10.054688 -24.210938 9.890625 -24.328125 C 9.734375 -24.441406 9.585938 -24.5 9.453125 -24.5 C 9.296875 -24.5 9.179688 -24.375 9.109375 -24.125 C 9.046875 -23.882812 9.015625 -23.664062 9.015625 -23.46875 C 8.984375 -21.863281 8.953125 -20.015625 8.921875 -17.921875 C 8.890625 -15.835938 8.851562 -13.6875 8.8125 -11.46875 C 8.78125 -9.25 8.765625 -7.125 8.765625 -5.09375 C 8.765625 -4.207031 8.984375 -3.390625 9.421875 -2.640625 C 9.867188 -1.890625 10.695312 -1.398438 11.90625 -1.171875 C 12.457031 -1.078125 12.863281 -0.960938 13.125 -0.828125 C 13.394531 -0.703125 13.53125 -0.523438 13.53125 -0.296875 C 13.53125 -0.0976562 13.394531 0.0390625 13.125 0.125 C 12.863281 0.207031 12.523438 0.25 12.109375 0.25 C 11.222656 0.25 10.554688 0.222656 10.109375 0.171875 C 9.671875 0.117188 9.28125 0.078125 8.9375 0.046875 C 8.59375 0.015625 8.113281 0 7.5 0 C 6.90625 0 6.445312 0.015625 6.125 0.046875 C 5.800781 0.078125 5.425781 0.117188 5 0.171875 C 4.570312 0.222656 3.914062 0.25 3.03125 0.25 C 2.613281 0.25 2.269531 0.207031 2 0.125 C 1.738281 0.0390625 1.609375 -0.0976562 1.609375 -0.296875 C 1.609375 -0.523438 1.738281 -0.703125 2 -0.828125 C 2.269531 -0.960938 2.679688 -1.09375 3.234375 -1.21875 C 4.179688 -1.476562 4.863281 -1.957031 5.28125 -2.65625 C 5.707031 -3.363281 5.972656 -4.226562 6.078125 -5.25 C 6.203125 -6.488281 6.328125 -8.128906 6.453125 -10.171875 C 6.585938 -12.210938 6.703125 -14.5 6.796875 -17.03125 C 6.898438 -19.5625 6.953125 -22.164062 6.953125 -24.84375 C 6.953125 -26.570312 6.503906 -27.8125 5.609375 -28.5625 C 4.710938 -29.3125 3.546875 -29.914062 2.109375 -30.375 C 1.972656 -30.445312 1.6875 -30.585938 1.25 -30.796875 C 0.8125 -31.003906 0.59375 -31.257812 0.59375 -31.5625 C 0.59375 -31.851562 0.738281 -32.035156 1.03125 -32.109375 C 1.320312 -32.191406 1.550781 -32.234375 1.71875 -32.234375 C 2.664062 -32.203125 3.429688 -32.175781 4.015625 -32.15625 C 4.609375 -32.144531 5.128906 -32.125 5.578125 -32.09375 C 6.035156 -32.0625 6.539062 -32.035156 7.09375 -32.015625 C 7.65625 -32.003906 8.378906 -32 9.265625 -32 C 9.554688 -32 9.78125 -31.914062 9.9375 -31.75 C 10.101562 -31.582031 10.269531 -31.382812 10.4375 -31.15625 C 10.570312 -30.96875 11.003906 -30.421875 11.734375 -29.515625 C 12.472656 -28.617188 13.390625 -27.492188 14.484375 -26.140625 C 15.578125 -24.785156 16.773438 -23.316406 18.078125 -21.734375 C 19.390625 -20.148438 20.695312 -18.566406 22 -16.984375 C 23.3125 -15.398438 24.519531 -13.925781 25.625 -12.5625 C 26.738281 -11.207031 27.660156 -10.085938 28.390625 -9.203125 C 29.128906 -8.328125 29.5625 -7.804688 29.6875 -7.640625 C 29.820312 -7.515625 30.007812 -7.316406 30.25 -7.046875 C 30.5 -6.785156 30.722656 -6.65625 30.921875 -6.65625 C 31.210938 -6.65625 31.375 -7 31.40625 -7.6875 C 31.40625 -8.144531 31.410156 -9.019531 31.421875 -10.3125 C 31.441406 -11.601562 31.457031 -13.171875 31.46875 -15.015625 C 31.488281 -16.859375 31.5 -18.859375 31.5 -21.015625 C 31.5 -23.171875 31.5 -25.378906 31.5 -27.640625 C 31.46875 -28.285156 31.125 -28.867188 30.46875 -29.390625 C 29.820312 -29.921875 29.222656 -30.234375 28.671875 -30.328125 C 28.109375 -30.429688 27.597656 -30.5625 27.140625 -30.71875 C 26.679688 -30.882812 26.453125 -31.082031 26.453125 -31.3125 C 26.453125 -31.507812 26.679688 -31.644531 27.140625 -31.71875 C 27.597656 -31.800781 28.039062 -31.84375 28.46875 -31.84375 C 28.789062 -31.84375 29.109375 -31.84375 29.421875 -31.84375 C 29.734375 -31.84375 30.046875 -31.84375 30.359375 -31.84375 C 30.671875 -31.84375 30.972656 -31.84375 31.265625 -31.84375 C 32.046875 -31.84375 32.664062 -31.851562 33.125 -31.875 C 33.582031 -31.894531 34.078125 -31.921875 34.609375 -31.953125 C 35.148438 -31.984375 35.910156 -32 36.890625 -32 C 37.316406 -32 37.660156 -31.957031 37.921875 -31.875 C 38.179688 -31.789062 38.3125 -31.648438 38.3125 -31.453125 C 38.3125 -30.992188 37.773438 -30.671875 36.703125 -30.484375 C 35.492188 -30.253906 34.691406 -29.957031 34.296875 -29.59375 C 33.910156 -29.238281 33.679688 -28.648438 33.609375 -27.828125 C 33.609375 -27.671875 33.597656 -27.035156 33.578125 -25.921875 C 33.566406 -24.804688 33.5625 -23.398438 33.5625 -21.703125 C 33.5625 -20.003906 33.550781 -18.175781 33.53125 -16.21875 C 33.519531 -14.257812 33.515625 -12.304688 33.515625 -10.359375 C 33.515625 -8.421875 33.515625 -6.679688 33.515625 -5.140625 C 33.515625 -4.359375 33.535156 -3.648438 33.578125 -3.015625 C 33.628906 -2.378906 33.671875 -1.835938 33.703125 -1.390625 C 33.742188 -0.953125 33.765625 -0.617188 33.765625 -0.390625 C 33.765625 0.128906 33.65625 0.460938 33.4375 0.609375 C 33.226562 0.753906 32.992188 0.828125 32.734375 0.828125 Z M 32.734375 0.828125 "/></g></g></g><g fill="#02c9ff" fill-opacity="1"><g transform="translate(108.646221, 301.031289)"><g><path d="M 13.882812 -4.316406 L 13.726562 -4.339844 C 13.207031 -1.921875 12.269531 -1.273438 10.058594 -1.273438 C 8.578125 -1.273438 6.992188 -1.402344 6.890625 -3.273438 C 6.8125 -4.417969 6.785156 -6.445312 6.785156 -9.332031 C 7.667969 -9.332031 8.578125 -9.304688 9.488281 -9.253906 C 11.464844 -9.175781 11.644531 -8.683594 11.984375 -7.304688 L 12.140625 -7.332031 C 12.035156 -8.136719 11.984375 -8.996094 11.984375 -9.773438 C 11.984375 -10.527344 12.0625 -11.386719 12.140625 -12.21875 L 11.984375 -12.242188 C 11.722656 -11.046875 11.4375 -10.347656 9.488281 -10.269531 C 8.242188 -10.214844 7.433594 -10.191406 6.785156 -10.214844 C 6.785156 -12.375 6.8125 -13.984375 6.941406 -17.546875 C 8.136719 -17.652344 8.96875 -17.675781 9.644531 -17.675781 C 12.0625 -17.675781 13.207031 -16.976562 13.621094 -14.765625 L 13.777344 -14.765625 C 13.621094 -16.089844 13.648438 -17.753906 13.777344 -18.742188 C 12.296875 -18.636719 10.164062 -18.558594 7.875 -18.558594 C 5.40625 -18.558594 3.09375 -18.636719 1.273438 -18.714844 L 1.273438 -18.558594 C 2.78125 -18.273438 3.378906 -17.519531 3.457031 -16.195312 C 3.613281 -13.855469 3.613281 -11.957031 3.613281 -9.359375 C 3.613281 -6.421875 3.613281 -4.886719 3.484375 -2.46875 C 3.40625 -0.960938 2.78125 -0.46875 1.300781 -0.15625 L 1.300781 0 C 3.066406 -0.128906 6.265625 -0.15625 7.875 -0.15625 C 9.59375 -0.15625 11.671875 -0.15625 13.882812 0 C 13.726562 -1.480469 13.726562 -2.886719 13.882812 -4.316406 Z M 13.882812 -4.316406 "/></g></g></g><g fill="#02c9ff" fill-opacity="1"><g transform="translate(124.293533, 301.031289)"><g><path d="M 17.339844 -2.675781 C 15.570312 -5.015625 13.621094 -7.667969 11.855469 -10.136719 C 13.671875 -12.582031 14.972656 -14.21875 16.558594 -16.222656 C 17.625 -17.574219 18.40625 -18.351562 19.808594 -18.585938 L 19.808594 -18.742188 C 18.820312 -18.664062 17.9375 -18.585938 17.027344 -18.585938 C 16.144531 -18.585938 15.15625 -18.636719 13.90625 -18.742188 L 13.90625 -18.585938 C 15.546875 -18.40625 15.832031 -17.652344 14.867188 -16.246094 C 13.542969 -14.269531 12.761719 -13.152344 11.179688 -11.074219 C 9.773438 -13.023438 8.527344 -14.816406 7.566406 -16.222656 C 6.523438 -17.753906 7.148438 -18.328125 8.707031 -18.585938 L 8.707031 -18.742188 C 7.019531 -18.636719 5.5625 -18.585938 4.574219 -18.585938 C 3.640625 -18.585938 1.691406 -18.664062 0.546875 -18.742188 L 0.546875 -18.585938 C 1.742188 -18.222656 2.183594 -17.730469 3.328125 -16.167969 C 4.808594 -14.167969 6.601562 -11.699219 8.292969 -9.410156 C 6.835938 -7.304688 4.730469 -4.394531 3.484375 -2.730469 C 2.3125 -1.144531 1.664062 -0.46875 0.285156 -0.15625 L 0.285156 0 C 1.167969 -0.078125 2.289062 -0.15625 3.199219 -0.15625 C 4.027344 -0.15625 4.835938 -0.105469 6.1875 0 L 6.1875 -0.15625 C 4.550781 -0.441406 4.132812 -1.195312 5.148438 -2.78125 C 6.210938 -4.394531 7.511719 -6.238281 9.019531 -8.371094 C 10.789062 -5.953125 12.320312 -3.796875 13.074219 -2.730469 C 14.269531 -1.015625 13.699219 -0.46875 12.191406 -0.15625 L 12.191406 0 C 13.386719 -0.105469 15.441406 -0.15625 16.480469 -0.15625 C 17.496094 -0.15625 19.417969 -0.078125 20.378906 0 L 20.378906 -0.15625 C 19.082031 -0.625 18.457031 -1.222656 17.339844 -2.675781 Z M 17.339844 -2.675781 "/></g></g></g><g fill="#02c9ff" fill-opacity="1"><g transform="translate(145.087309, 301.031289)"><g><path d="M 17.832031 -19.496094 C 17.703125 -18.976562 17.441406 -18.898438 16.976562 -18.820312 C 16.066406 -18.714844 11.230469 -18.585938 9.332031 -18.585938 C 7.433594 -18.585938 3.121094 -18.691406 2.3125 -18.792969 C 2 -18.847656 1.820312 -18.898438 1.871094 -19.546875 L 1.714844 -19.546875 C 1.558594 -18.328125 1.066406 -15.832031 0.753906 -14.972656 L 0.910156 -14.945312 C 1.324219 -16.039062 1.664062 -17.027344 2.910156 -17.207031 C 3.847656 -17.363281 5.902344 -17.46875 7.667969 -17.496094 C 7.796875 -14.84375 7.824219 -11.878906 7.824219 -9.304688 C 7.824219 -6.601562 7.796875 -4.707031 7.640625 -2.367188 C 7.566406 -1.066406 6.964844 -0.414062 5.457031 -0.105469 L 5.457031 0.0507812 C 6.785156 -0.0273438 8.214844 -0.105469 9.410156 -0.105469 C 10.578125 -0.105469 12.035156 -0.0273438 13.335938 0.0507812 L 13.335938 -0.105469 C 11.800781 -0.441406 11.253906 -1.066406 11.179688 -2.367188 C 10.996094 -4.992188 10.996094 -6.316406 10.996094 -9.304688 C 10.996094 -12.21875 11.023438 -15 11.125 -17.496094 C 12.867188 -17.46875 14.84375 -17.363281 15.753906 -17.234375 C 16.949219 -17.050781 17.128906 -16.222656 17.027344 -15.179688 L 17.183594 -15.179688 C 17.285156 -16.117188 17.597656 -18.039062 17.988281 -19.496094 Z M 17.832031 -19.496094 "/></g></g></g><g fill="#02c9ff" fill-opacity="1"><g transform="translate(163.905675, 301.031289)"><g><path d="M 13.882812 -4.316406 L 13.726562 -4.339844 C 13.207031 -1.921875 12.269531 -1.273438 10.058594 -1.273438 C 8.578125 -1.273438 6.992188 -1.402344 6.890625 -3.273438 C 6.8125 -4.417969 6.785156 -6.445312 6.785156 -9.332031 C 7.667969 -9.332031 8.578125 -9.304688 9.488281 -9.253906 C 11.464844 -9.175781 11.644531 -8.683594 11.984375 -7.304688 L 12.140625 -7.332031 C 12.035156 -8.136719 11.984375 -8.996094 11.984375 -9.773438 C 11.984375 -10.527344 12.0625 -11.386719 12.140625 -12.21875 L 11.984375 -12.242188 C 11.722656 -11.046875 11.4375 -10.347656 9.488281 -10.269531 C 8.242188 -10.214844 7.433594 -10.191406 6.785156 -10.214844 C 6.785156 -12.375 6.8125 -13.984375 6.941406 -17.546875 C 8.136719 -17.652344 8.96875 -17.675781 9.644531 -17.675781 C 12.0625 -17.675781 13.207031 -16.976562 13.621094 -14.765625 L 13.777344 -14.765625 C 13.621094 -16.089844 13.648438 -17.753906 13.777344 -18.742188 C 12.296875 -18.636719 10.164062 -18.558594 7.875 -18.558594 C 5.40625 -18.558594 3.09375 -18.636719 1.273438 -18.714844 L 1.273438 -18.558594 C 2.78125 -18.273438 3.378906 -17.519531 3.457031 -16.195312 C 3.613281 -13.855469 3.613281 -11.957031 3.613281 -9.359375 C 3.613281 -6.421875 3.613281 -4.886719 3.484375 -2.46875 C 3.40625 -0.960938 2.78125 -0.46875 1.300781 -0.15625 L 1.300781 0 C 3.066406 -0.128906 6.265625 -0.15625 7.875 -0.15625 C 9.59375 -0.15625 11.671875 -0.15625 13.882812 0 C 13.726562 -1.480469 13.726562 -2.886719 13.882812 -4.316406 Z M 13.882812 -4.316406 "/></g></g></g><g fill="#02c9ff" fill-opacity="1"><g transform="translate(179.552986, 301.031289)"><g><path d="M 12.453125 -8.683594 C 14.191406 -9.75 15.15625 -11.542969 15.15625 -13.492188 C 15.15625 -16.507812 12.816406 -18.714844 8.550781 -18.714844 C 7.511719 -18.714844 6.210938 -18.585938 4.859375 -18.585938 C 3.875 -18.585938 2.546875 -18.636719 1.300781 -18.742188 L 1.300781 -18.585938 C 2.808594 -18.273438 3.378906 -17.859375 3.484375 -16.429688 C 3.613281 -14.636719 3.613281 -10.371094 3.613281 -9.359375 C 3.613281 -6.65625 3.613281 -4.757812 3.457031 -2.417969 C 3.378906 -1.089844 2.78125 -0.46875 1.273438 -0.15625 L 1.273438 0 C 2.597656 -0.078125 4.027344 -0.15625 5.199219 -0.15625 C 6.394531 -0.15625 7.824219 -0.078125 9.125 0 L 9.125 -0.15625 C 7.589844 -0.46875 7.042969 -1.089844 6.964844 -2.390625 C 6.835938 -4.523438 6.8125 -5.796875 6.785156 -7.773438 C 7.355469 -7.71875 8.085938 -7.695312 8.65625 -7.695312 L 9.125 -7.695312 C 13.363281 -1.558594 11.75 0 20.222656 0 L 20.222656 -0.15625 C 17.183594 -0.261719 15.46875 -3.378906 12.453125 -8.683594 Z M 8.214844 -8.605469 C 7.617188 -8.605469 7.175781 -8.683594 6.785156 -8.8125 L 6.785156 -9.359375 C 6.785156 -11.90625 6.785156 -13.75 6.941406 -17.496094 C 7.355469 -17.574219 7.71875 -17.597656 8.109375 -17.597656 C 10.734375 -17.597656 11.984375 -15.46875 11.984375 -13.074219 C 11.984375 -11.253906 11.28125 -8.605469 8.214844 -8.605469 Z M 8.214844 -8.605469 "/></g></g></g><g fill="#02c9ff" fill-opacity="1"><g transform="translate(199.073138, 301.031289)"><g><path d="M 9.125 -18.558594 L 9.125 -18.714844 C 7.824219 -18.636719 6.394531 -18.558594 5.199219 -18.558594 C 4.027344 -18.558594 2.597656 -18.636719 1.273438 -18.714844 L 1.273438 -18.558594 C 2.78125 -18.25 3.378906 -17.597656 3.457031 -16.273438 C 3.613281 -13.933594 3.613281 -12.0625 3.613281 -9.359375 C 3.613281 -6.65625 3.613281 -4.78125 3.457031 -2.445312 C 3.378906 -1.117188 2.78125 -0.46875 1.273438 -0.15625 L 1.273438 0 C 2.597656 -0.078125 4.027344 -0.15625 5.199219 -0.15625 C 6.394531 -0.15625 7.824219 -0.078125 9.125 0 L 9.125 -0.15625 C 7.640625 -0.46875 7.042969 -1.117188 6.964844 -2.445312 C 6.8125 -5.070312 6.785156 -6.34375 6.785156 -9.359375 C 6.785156 -12.375 6.8125 -13.648438 6.964844 -16.273438 C 7.042969 -17.597656 7.589844 -18.222656 9.125 -18.558594 Z M 9.125 -18.558594 "/></g></g></g><g fill="#02c9ff" fill-opacity="1"><g transform="translate(209.470026, 301.031289)"><g><path d="M 11.464844 0.261719 C 17.339844 0.261719 21.394531 -3.953125 21.394531 -9.410156 C 21.394531 -14.972656 16.976562 -19.003906 11.308594 -19.003906 C 5.457031 -19.003906 1.324219 -14.792969 1.324219 -9.304688 C 1.324219 -3.769531 5.769531 0.261719 11.464844 0.261719 Z M 11.671875 -0.804688 C 7.199219 -0.804688 4.757812 -5.355469 4.757812 -10.007812 C 4.757812 -14.503906 7.253906 -17.9375 11.101562 -17.9375 C 15.570312 -17.9375 17.960938 -13.363281 17.960938 -8.761719 C 17.960938 -4.160156 15.492188 -0.804688 11.671875 -0.804688 Z M 11.671875 -0.804688 "/></g></g></g><g fill="#02c9ff" fill-opacity="1"><g transform="translate(232.213211, 301.031289)"><g><path d="M 12.453125 -8.683594 C 14.191406 -9.75 15.15625 -11.542969 15.15625 -13.492188 C 15.15625 -16.507812 12.816406 -18.714844 8.550781 -18.714844 C 7.511719 -18.714844 6.210938 -18.585938 4.859375 -18.585938 C 3.875 -18.585938 2.546875 -18.636719 1.300781 -18.742188 L 1.300781 -18.585938 C 2.808594 -18.273438 3.378906 -17.859375 3.484375 -16.429688 C 3.613281 -14.636719 3.613281 -10.371094 3.613281 -9.359375 C 3.613281 -6.65625 3.613281 -4.757812 3.457031 -2.417969 C 3.378906 -1.089844 2.78125 -0.46875 1.273438 -0.15625 L 1.273438 0 C 2.597656 -0.078125 4.027344 -0.15625 5.199219 -0.15625 C 6.394531 -0.15625 7.824219 -0.078125 9.125 0 L 9.125 -0.15625 C 7.589844 -0.46875 7.042969 -1.089844 6.964844 -2.390625 C 6.835938 -4.523438 6.8125 -5.796875 6.785156 -7.773438 C 7.355469 -7.71875 8.085938 -7.695312 8.65625 -7.695312 L 9.125 -7.695312 C 13.363281 -1.558594 11.75 0 20.222656 0 L 20.222656 -0.15625 C 17.183594 -0.261719 15.46875 -3.378906 12.453125 -8.683594 Z M 8.214844 -8.605469 C 7.617188 -8.605469 7.175781 -8.683594 6.785156 -8.8125 L 6.785156 -9.359375 C 6.785156 -11.90625 6.785156 -13.75 6.941406 -17.496094 C 7.355469 -17.574219 7.71875 -17.597656 8.109375 -17.597656 C 10.734375 -17.597656 11.984375 -15.46875 11.984375 -13.074219 C 11.984375 -11.253906 11.28125 -8.605469 8.214844 -8.605469 Z M 8.214844 -8.605469 "/></g></g></g><g fill="#02c9ff" fill-opacity="1"><g transform="translate(251.733363, 301.031289)"><g><path d="M 6.578125 0.261719 C 10.035156 0.261719 12.789062 -1.792969 12.789062 -4.992188 C 12.789062 -10.191406 5.382812 -11.75 5.382812 -15.414062 C 5.382812 -16.742188 6.34375 -17.882812 8.214844 -17.882812 C 9.800781 -17.882812 11.101562 -17 11.515625 -14.816406 L 11.671875 -14.816406 C 11.515625 -15.699219 11.566406 -17.050781 11.671875 -18.015625 C 10.839844 -18.535156 9.695312 -18.976562 8.085938 -18.976562 C 5.148438 -18.976562 2.261719 -17.496094 2.261719 -14.296875 C 2.261719 -9.359375 9.644531 -7.875 9.644531 -3.691406 C 9.644531 -1.820312 8.1875 -0.832031 6.421875 -0.832031 C 4.394531 -0.832031 2.597656 -2.210938 2.105469 -4.757812 L 1.949219 -4.757812 C 2.078125 -3.5625 2.054688 -2.445312 1.949219 -1.273438 C 2.808594 -0.625 4.316406 0.261719 6.578125 0.261719 Z M 6.578125 0.261719 "/></g></g></g></svg>