<?xml version="1.0" encoding="utf-8"?>
<!-- Generator: Adobe Illustrator 25.4.1, SVG Export Plug-In . SVG Version: 6.00 Build 0)  -->
<svg version="1.1" id="Layer_1" xmlns="http://www.w3.org/2000/svg" xmlns:xlink="http://www.w3.org/1999/xlink" x="0px" y="0px"
	 viewBox="0 0 215 100" style="enable-background:new 0 0 215 100;" xml:space="preserve">
<style type="text/css">
	.st0{fill:#FFFFFF;}
	.st1{fill:#D31245;}
	.st2{fill:#005DAA;}
	.st3{fill:#1D3565;}
</style>
<rect class="st0" width="185" height="100"/>
<g>
	<path class="st1" d="M11.3,60.1c0,1.7,0,2.1,0,2.1c8.5,0,15.5,0,22.5,0c1.4-2.6,2.7-4.9,4-7.3c-5,0-9.4,0-15.6,0
		c-1.1,1.9-1.7,2.9-3.1,5.2L11.3,60.1z"/>
	<path class="st1" d="M27.7,45.6c12.5,0,25,0,37.5,0c0.8,4.5,1,5.8,1.4,8c-13.6,0-29,0-43.7,0C22.9,53.6,26.1,48.2,27.7,45.6z"/>
	<path class="st1" d="M28.4,44.3c1.2-2.1,2.3-3.9,3.5-5.9c4.8,0,10,0,14.8,0c-1.1,2-1.2,2.2-3.2,5.9C38.5,44.3,33.7,44.3,28.4,44.3z
		"/>
	<path class="st2" d="M36.2,31.2c8.7,0,17.6,0,26.3,0c0.4,2,0.7,3.8,1.1,5.9c-4.1,0-9.2,0-13.4,0c0,0-0.1-0.6-0.6-4
		c-1.2,2.3-2.1,4-2.2,4c-4.7,0-9.6,0-14.7,0C32.7,37,35.1,33.1,36.2,31.2z"/>
	<path class="st2" d="M36.9,29.8c0.7-1.2,2.3-4,2.3-4c8.1,0,14.8,0,22.2,0c0.3,1.4,0.3,1.7,0.7,4C54.4,29.8,45.3,29.8,36.9,29.8z"/>
	<path class="st2" d="M40.4,24c0.9-1.6,1.3-2.3,2.1-3.6c6,0,12.1,0,18,0c0.3,1.6,0.3,1.9,0.8,4.1c-7,0-14.2,0-21.2,0
		C40.1,24.5,40.3,24.1,40.4,24z"/>
	<path class="st2" d="M43.3,19c0.8-1.3,2.5-4.2,2.5-4.2c2.7,0,9.2,0,13.7,0c0.3,1.7,0.3,1.5,0.8,4.2C54.8,19,48.9,19,43.3,19z"/>
	<path class="st1" d="M51.1,44.3c-0.3-2.1-0.2-1.3-0.8-5.9c4.5,0,9,0,13.5,0c0.5,2.7,0.7,4,1.1,5.9C60.2,44.3,55.5,44.3,51.1,44.3z"
		/>
	<path class="st1" d="M53.5,62.3c-0.3-2.5-0.7-5-1-7.3c4.8,0,9.6,0,14.3,0c1,5.3,0.9,5,1.4,7.3C63.4,62.3,58.4,62.3,53.5,62.3z"/>
	<path class="st1" d="M94.8,62.2c-9.4,0-11.1,0-24.3,0c0.6-3.7,0.9-5.3,1.3-7.3c12.7,0,25.6,0,38.4,0c-1.6,3.7-5.7,6.2-9.7,6.9
		C98.4,62.3,96.4,62.2,94.8,62.2z"/>
	<path class="st1" d="M72,53.6c0.3-1.9,1-5.7,1.4-8c4.4,0,8.8,0,13.2,0c-0.4,2.4-0.5,2.9-0.9,5.5c1.8,0,5.5,0,7.4,0
		c3.5-0.2,6.2-1.6,6.4-5.5c4.1,0,8.7,0,12.1,0c0.6,2.7-0.4,7.3-0.9,8C97.8,53.6,85,53.6,72,53.6z"/>
	<path class="st1" d="M73.6,44.3c0.4-2.5,0.7-4,1-5.9c10.9,0,22.1,0,32.9,0c1.7,1.6,3.5,4.2,3.8,5.9c-2.1,0-4.4,0-6.6,0
		c-1.7,0-3.6,0-5.4,0c-0.5-2.3-3-2.9-6.5-2.9c-0.9,0-4,0-5.5,0c-0.2,1.4-0.2,1.5-0.5,2.9C82.5,44.3,78.1,44.3,73.6,44.3z"/>
	<path class="st2" d="M74.9,37c0.4-2.1,0.6-3.5,1-5.9c4.7,0,9.1,0,13,0c-0.2,1.2-0.3,2-0.5,3.6c5,0,5.4,0,8.5,0
		c2.3,0,4.7-1.8,4.9-3.6c3.6,0,7.5,0,11.2,0c-0.8,2.6-3.2,4.3-5.2,5.9C96.9,37,86,37,74.9,37z"/>
	<path class="st2" d="M76.1,29.8c0.4-2.1,0.5-2.7,0.7-4c4.6,0,8.7,0,12.9,0c-0.3,2-0.3,2.3-0.6,4C84.8,29.8,80.5,29.8,76.1,29.8z"/>
	<path class="st2" d="M77.1,24.5c0.3-1.9,0.4-2.2,0.7-4.1c11.5,0,23.2,0,34.6,0c0.9,1.4,1.2,2.5,1.4,4.1
		C101.7,24.5,89.2,24.5,77.1,24.5z"/>
	<path class="st2" d="M78,19c0.4-2.4,0.5-2.9,0.7-4.2c6.3,0,16.2,0,21.7,0c9.1,0,11.2,4.2,11.2,4.2C101.5,19,89.1,19,78,19z"/>
	<path class="st2" d="M101.9,29.8c-0.1-1.4-0.1-2.8-3-4c4.9,0,10.2,0,15.1,0c0.1,1.4-0.1,2.7-0.5,4
		C109.7,29.8,105.7,29.8,101.9,29.8z"/>
	<path class="st1" d="M153.1,55c-3.6,4.6-8.7,6.9-14.2,7.7c-7.4,1-15-1.4-19.3-7.8C131.7,54.9,141.8,54.9,153.1,55L153.1,55z"/>
	<path class="st1" d="M118.8,53.6c-1.3-1.8-2.3-5.4-2.6-8c5.2,0,9.4,0,14.1,0c1,2.5,2.7,4.7,5.3,5.1c3.7,0.6,6.5-2.2,8.1-5.1
		c5.1,0,9.7,0,14.7,0c-1,2.8-3.1,6.4-4.4,8C142,53.6,131,53.6,118.8,53.6z"/>
	<path class="st1" d="M116,44.3c-0.2-1.1-0.2-3.9,0-5.9c4.7,0,9.2,0,13.9,0c-0.3,1.8-0.3,3.8,0.1,5.9
		C125.3,44.3,120.8,44.3,116,44.3z"/>
	<path class="st2" d="M116.2,37c0.3-2.1,0.6-3.6,1.5-5.9c5.1,0,10.1,0,15,0c-1.1,1.7-2,3.8-2.5,5.9C125.6,37,121,37,116.2,37z"/>
	<path class="st2" d="M118.2,29.8c0.9-1.8,2.2-4,2.2-4c2.1,0,12,0,17.9,0c-2,0.8-3.6,2.1-4.9,4C128.5,29.8,123.5,29.8,118.2,29.8z"
		/>
	<path class="st2" d="M121.4,24.5c2.2-2.8,3.9-4.1,3.9-4.1c10.3,0,20.4,0,30.4,0c0,0,1.5,1.6,2.7,4.1
		C146,24.5,133.8,24.5,121.4,24.5z"/>
	<path class="st2" d="M126.9,19c3.7-2.6,8.2-4.6,12.3-4.9C140,14,140.5,14,141,14c0.5,0,2.1,0,2.5,0.1c2.7,0.3,3.3,0.3,5.5,1.1
		c6.5,0,13,0,19,0v2.6c-4.5,0-9.4,0-14.7,0c0.6,0.5,0.9,0.8,1.3,1.3C145.6,19,136.1,19,126.9,19z"/>
	<path class="st2" d="M144.7,28.1c-0.6-0.7-1.3-1.7-2.3-2.3c5.5,0,11,0,16.5,0c0.6,1.3,0.8,2.3,1,4c-4.5,0-9.6,0-14.3,0
		C145.7,29.8,145.5,29.2,144.7,28.1z"/>
	<path class="st2" d="M146.1,31.2c4.5,0,11,0,13.9,0c0,0,0.1,1.3,0.1,1.9c-4.4,0-8.9,0-13.6,0C146.4,32,146.1,31.2,146.1,31.2z"/>
	<path class="st1" d="M145.5,41.9c5.1,0,9.8,0,14,0c-0.1,0.6-0.6,2.4-0.6,2.4c-1.6,0-9.4,0-14.4,0C145.1,43.2,145.5,41.9,145.5,41.9
		z"/>
	<path class="st2" d="M156.9,57c0.7,0,1.2,0.2,1.7,0.7c0.5,0.5,0.7,1,0.7,1.7c0,0.7-0.2,1.2-0.7,1.7c-0.5,0.5-1,0.7-1.7,0.7
		c-0.7,0-1.2-0.2-1.7-0.7c-0.5-0.5-0.7-1-0.7-1.7c0-0.7,0.2-1.2,0.7-1.7C155.7,57.3,156.2,57,156.9,57z M159.7,59.4
		c0-0.8-0.3-1.4-0.8-2c-0.6-0.5-1.2-0.8-2-0.8c-0.8,0-1.4,0.3-2,0.8c-0.5,0.6-0.8,1.2-0.8,2c0,0.8,0.3,1.4,0.8,2
		c0.5,0.6,1.2,0.8,2,0.8c0.8,0,1.4-0.3,2-0.8C159.5,60.9,159.7,60.2,159.7,59.4z M157.7,58.8c0,0.2-0.1,0.4-0.3,0.5
		c-0.1,0-0.3,0.1-0.5,0.1h-0.5v-1.1h0.5c0.3,0,0.5,0,0.7,0.1C157.6,58.5,157.7,58.6,157.7,58.8z M155.8,57.9V61h0.5v-1.2h0.4
		c0.3,0,0.5,0,0.6,0.1c0.2,0.1,0.3,0.3,0.3,0.7v0.2l0,0.1c0,0,0,0,0,0c0,0,0,0,0,0h0.5l0,0c0,0,0-0.1,0-0.2c0-0.1,0-0.2,0-0.2v-0.2
		c0-0.2-0.1-0.3-0.2-0.5c-0.1-0.2-0.3-0.3-0.5-0.3c0.2,0,0.3-0.1,0.4-0.1c0.2-0.1,0.3-0.3,0.3-0.6c0-0.4-0.2-0.7-0.5-0.8
		c-0.2-0.1-0.5-0.1-0.8-0.1H155.8z"/>
	<path class="st2" d="M21.8,77.7c-0.1,0.8-0.1,2.2,2.5,2.2c1.4,0,3.1-0.3,3.4-1.8c0.2-1.1-0.8-1.3-2.2-1.7L24,76.2
		c-2.2-0.5-4.3-1-3.6-4c0.3-1.5,1.8-4.2,6.4-4.2c4.4,0,4.9,2.7,4.6,4.4h-2.9c0.1-0.6,0.1-2-2.5-2c-1.1,0-2.6,0.4-2.9,1.6
		c-0.2,1.1,0.6,1.3,1.2,1.4l3.3,0.8c1.8,0.5,3.5,1.2,2.9,3.7c-0.9,4.1-5.4,4.5-6.6,4.5c-5.2,0-5.5-2.9-5.1-4.5H21.8z"/>
	<path class="st2" d="M41.3,81.9h-2.7l0.3-1.4h0c-0.9,1.1-2.1,1.7-3.6,1.7c-2.1,0-3.4-1.1-2.8-3.7l1.5-6.6h2.8l-1.4,6.3
		c-0.3,1.6,0.5,1.9,1.4,1.9c0.9,0,2.3-0.5,2.7-2.3l1.3-5.8h2.8L41.3,81.9z"/>
	<path class="st2" d="M47.5,77.1c0.4-1.6,1.2-3.2,3.1-3.2c1.8,0,2,1.5,1.7,3.1c-0.3,1.2-1.2,3-3,3C47.6,80,47.2,78.6,47.5,77.1z
		 M48.7,71.8h-2.7l-3.1,14h2.8l1.2-5.2h0c0.2,0.5,0.7,1.6,2.6,1.6c3.2,0,5.1-2.7,5.7-5.4c0.8-3.5-0.9-5.2-3.2-5.2
		c-1.9,0-2.9,0.9-3.5,1.7h0L48.7,71.8z"/>
	<path class="st2" d="M59.7,77.1c0.4-1.6,1.2-3.2,3.1-3.2c1.8,0,2,1.5,1.7,3.1c-0.3,1.2-1.2,3-3,3C59.7,80,59.3,78.6,59.7,77.1z
		 M60.8,71.8h-2.7l-3.1,14h2.8l1.2-5.2h0c0.2,0.5,0.7,1.6,2.6,1.6c3.1,0,5.1-2.7,5.7-5.4c0.8-3.5-0.9-5.2-3.2-5.2
		c-1.9,0-2.9,0.9-3.6,1.7h0L60.8,71.8z"/>
	<path class="st2" d="M71,81.9h-2.8l3-13.6H74L71,81.9z"/>
	<path class="st2" d="M79.4,81.8c-2.2,3.7-2.6,4.2-5,4.2c-0.4,0-0.9,0-1.2,0l0.5-2.1c0.1,0,0.3,0,0.5,0c1,0,1.6-0.1,2.2-1.5
		l-1.6-10.5h3.1l0.6,7.4h0l3.8-7.4h2.9L79.4,81.8z"/>
	<path class="st2" d="M100.9,72.8c-0.1-0.8-0.2-2.4-2.5-2.4c-1.4,0-3.6,0.9-4.4,4.8c-0.5,2.4,0,4.6,2.4,4.6c1.6,0,2.9-0.9,3.6-2.6
		h2.8c-1.2,3-3.6,5-7,5c-3.6,0-5.7-2.4-4.7-7.2c1-4.8,4.3-7.2,7.8-7.2c4.1,0,5.1,2.8,4.9,4.8H100.9z"/>
	<path class="st2" d="M111.8,76.9c-0.3,1.3-1,3.1-3.1,3.1c-2,0-2-1.8-1.8-3.1c0.3-1.3,1-3.1,3.1-3.1
		C112.1,73.8,112.1,75.6,111.8,76.9z M114.5,76.9c0.8-3.6-1.3-5.3-4-5.3c-2.7,0-5.5,1.7-6.3,5.3c-0.8,3.6,1.3,5.3,4,5.3
		C111,82.2,113.8,80.5,114.5,76.9z"/>
	<path class="st2" d="M118.1,81.9h-2.8l0.6-2.8h2.8L118.1,81.9z"/>
	<path class="st2" d="M130.6,71.8l-2.1,10.1h-2.7l2.2-10.1H130.6z M130.9,70.7h-2.7l0.5-2.5h2.7L130.9,70.7z"/>
	<path class="st2" d="M140.1,81.9h-2.7l1.3-6.1c0.2-0.7,0.4-2-1.3-2c-1.2,0-2.3,0.8-2.6,2.3l-1.2,5.8H131l2.1-10.1h2.5l-0.3,1.5h0
		c0.5-0.6,1.5-1.7,3.4-1.7c2,0,3.3,1.2,2.8,3.4L140.1,81.9z"/>
	<path class="st2" d="M152,78.3c-0.3,1-1.7,3.9-5.4,3.9c-3.8,0-4-2.9-3.6-5c0.7-3.3,2.6-5.6,6-5.6c1.6,0,4.1,0.7,3.6,3.9h-2.7
		c0-0.7-0.2-1.7-1.4-1.6c-1.7,0-2.5,1.7-2.7,2.9c-0.2,1.1-0.7,3.3,1.4,3.3c1.3,0,2.1-1.3,2.2-1.8H152z"/>
	<path class="st2" d="M155.9,81.9H153l0.6-2.8h2.8L155.9,81.9z"/>
</g>
<polygon class="st3" points="185,14 185,100 185.2,100 215,14 "/>
</svg>
